<svg id="Ebene_1" xmlns="http://www.w3.org/2000/svg" viewBox="0 0 24 24"><style>.st0{fill:#22386e}.st1{fill:#fff}</style><circle class="st0" cx="12" cy="12" r="12"/><path class="st1" d="M9.5 10.6L6.9 8.1l1-1c.2-.1.4-.1.5 0l2 2c.2.2.2.4 0 .6l-.8.8c-.1 0-.1.1-.1.1zm2 4.2c-.4-.4-.8-.7-1.2-1.1-.4-.4-.8-.8-1.1-1.2-.3-.3-.3-.8-.2-1.2L6.4 8.6c-.6.6-.5 2.2.1 3.5.3.6.7 1.1 1 1.6.4.5.8 1 1.2 1.4.4.4.9.9 1.4 1.2.5.4 1 .8 1.6 1 1.4.7 2.9.7 3.5.1L12.8 15c-.4.1-.9.1-1.3-.2zm5.4.8l-2-2c-.2-.1-.4-.1-.6 0l-.4.4-.4.4c0 .1-.1.1-.2.1l2.5 2.5 1-1c.2 0 .2-.3.1-.4zm0 0"/></svg>